<svg width="24" height="30" viewBox="0 0 24 30" fill="none" xmlns="http://www.w3.org/2000/svg">
<path fill-rule="evenodd" clip-rule="evenodd" d="M11.9169 23.0594C18.1511 23.0594 23.2049 18.0056 23.2049 11.7714C23.2049 5.53721 18.1511 0.483398 11.9169 0.483398C5.68272 0.483398 0.628906 5.53721 0.628906 11.7714C0.628906 18.0056 5.68272 23.0594 11.9169 23.0594ZM11.9053 17.3487C14.9288 17.3487 17.3799 14.8471 17.3799 11.7612C17.3799 8.67524 14.9288 6.1736 11.9053 6.1736C8.88167 6.1736 6.43057 8.67524 6.43057 11.7612C6.43057 14.8471 8.88167 17.3487 11.9053 17.3487Z" fill="#1E1F54"/>
<path fill-rule="evenodd" clip-rule="evenodd" d="M0.511963 23.882C0.550738 23.8179 0.607013 23.764 0.677357 23.7283C4.65952 21.7144 9.49783 23.9706 10.5146 28.3154C10.5575 28.4987 10.4693 28.6881 10.3011 28.7732C6.3193 30.7871 1.481 28.5309 0.463923 24.186C0.438873 24.0793 0.458432 23.9709 0.511963 23.882ZM23.2891 23.9126C23.274 23.8824 23.2551 23.8539 23.2331 23.8278C23.1988 23.7877 23.1563 23.7537 23.1072 23.7286C19.125 21.7147 14.2867 23.9709 13.27 28.3158C13.2467 28.4153 13.2618 28.5162 13.3074 28.6016C13.3153 28.6164 13.3242 28.6308 13.3342 28.6448C13.3441 28.6589 13.3548 28.6723 13.3664 28.685C13.399 28.7207 13.4385 28.7509 13.4834 28.7735C17.4653 30.7874 22.3036 28.5313 23.3206 24.1864C23.3302 24.1462 23.3333 24.1058 23.3306 24.0663C23.3289 24.0409 23.3248 24.0158 23.3186 23.9915C23.3117 23.9644 23.3018 23.938 23.2891 23.9126Z" fill="#3FC78E"/>
</svg>
