<svg width="116" height="29" viewBox="0 0 116 29" fill="none" xmlns="http://www.w3.org/2000/svg">
<path fill-rule="evenodd" clip-rule="evenodd" d="M17.8353 14.2568C17.8353 19.2128 14.6105 22.9808 9.96003 22.9808C7.4481 22.9808 5.68296 21.9285 4.52883 20.2312L4.46094 22.0642C4.46094 22.3697 4.25727 22.5734 3.95176 22.5734H0.625151C0.319646 22.5734 0.0820312 22.3697 0.0820312 22.0642V0.509175C0.0820312 0.20367 0.285701 0 0.591206 0H4.29121C4.59672 0 4.80039 0.20367 4.80039 0.509175V7.87517C5.92057 6.38159 7.65177 5.53297 9.96003 5.53297C14.6105 5.53297 17.8353 9.3348 17.8353 14.2568ZM8.97562 9.81003C6.46369 9.81003 4.7325 11.5752 4.7325 14.2568C4.7325 16.9385 6.46369 18.7037 8.97562 18.7037C11.4197 18.7037 13.2527 16.9385 13.2527 14.2568C13.2527 11.6091 11.4197 9.81003 8.97562 9.81003ZM23.8838 22.5734H20.1838C19.8783 22.5734 19.6747 22.3697 19.6747 22.0642V0.509175C19.6747 0.20367 19.8783 0 20.1838 0H23.8838C24.1893 0 24.393 0.20367 24.393 0.509175V22.0642C24.393 22.3697 24.1893 22.5734 23.8838 22.5734ZM50.7717 22.9808C54.0983 22.9808 56.9837 21.2496 57.0176 17.889C57.0515 15.3431 55.3882 13.9174 53.2836 13.0688L50.9414 12.1522C50.0249 11.8128 49.346 11.3376 49.346 10.5229C49.346 9.81004 49.8552 9.19903 50.9414 9.19903C51.9258 9.19903 52.8763 9.67426 53.9625 10.5908C54.2681 10.8284 54.5057 10.8623 54.7433 10.5908L56.2369 8.79169C56.4066 8.58801 56.4745 8.31645 56.2708 8.07884C54.8791 6.41554 52.8763 5.53297 50.7038 5.53297C47.6148 5.53297 44.8992 7.36599 44.8992 10.5568C44.8992 12.8651 46.3928 14.2568 48.5313 15.1055L50.6359 15.9541C51.858 16.4633 52.3671 16.8707 52.3671 17.6853C52.3671 18.6358 51.6203 19.0771 50.5002 19.0771C49.2102 19.0771 48.0561 18.5 46.6644 17.4477C46.3928 17.2441 46.0873 17.1762 45.8157 17.5835L44.6277 19.2468C44.3901 19.6202 44.3561 19.9936 44.5598 20.2312C45.8836 21.7927 47.9882 22.9808 50.7717 22.9808ZM70.9085 17.889C70.8746 21.2496 67.9893 22.9808 64.6626 22.9808C61.8792 22.9808 59.7746 21.7927 58.4507 20.2312C58.247 19.9936 58.281 19.6202 58.5186 19.2468L59.7067 17.5835C59.9782 17.1762 60.2837 17.2441 60.5553 17.4477C61.947 18.5 63.1012 19.0771 64.3911 19.0771C65.5113 19.0771 66.2581 18.6358 66.2581 17.6853C66.2581 16.8707 65.7489 16.4633 64.5269 15.9541L62.4223 15.1055C60.2837 14.2568 58.7902 12.8651 58.7902 10.5568C58.7902 7.36599 61.5058 5.53297 64.5948 5.53297C66.7672 5.53297 68.77 6.41554 70.1617 8.07884C70.3654 8.31645 70.2975 8.58801 70.1278 8.79169L68.6342 10.5908C68.3966 10.8623 68.159 10.8284 67.8535 10.5908C66.7672 9.67426 65.8168 9.19903 64.8324 9.19903C63.7461 9.19903 63.237 9.81004 63.237 10.5229C63.237 11.3376 63.9159 11.8128 64.8324 12.1522L67.1746 13.0688C69.2792 13.9174 70.9425 15.3431 70.9085 17.889ZM91.5943 22.5734H95.2603C95.5658 22.5734 95.7695 22.3697 95.7695 22.0642V13.3403C95.7695 11.066 96.7879 9.84398 98.553 9.84398C100.352 9.84398 101.201 11.066 101.201 13.3403V22.0642C101.201 22.3697 101.404 22.5734 101.744 22.5734H105.376C105.681 22.5734 105.885 22.3697 105.885 22.0642V13.3403C105.885 11.066 106.903 9.84398 108.669 9.84398C110.502 9.84398 111.316 11.066 111.316 13.3403V22.0642C111.316 22.3697 111.52 22.5734 111.826 22.5734H115.492C115.797 22.5734 116.001 22.3697 116.001 22.0642V12.322C116.001 7.97701 113.828 5.53297 110.264 5.53297C107.684 5.53297 106.055 6.78893 105.138 8.48618C104.222 6.55132 102.559 5.53297 100.42 5.53297C98.1457 5.53297 96.6521 6.6871 95.7356 8.24857L95.6337 6.48342C95.6337 6.07609 95.4301 5.94031 95.1246 5.94031H91.5943C91.2888 5.94031 91.0851 6.14397 91.0851 6.44948V22.0642C91.0851 22.3697 91.2888 22.5734 91.5943 22.5734ZM34.74 23.0141C39.558 23.0141 43.4638 19.1083 43.4638 14.2903C43.4638 9.47221 39.558 5.56641 34.74 5.56641C29.9219 5.56641 26.0161 9.47221 26.0161 14.2903C26.0161 19.1083 29.9219 23.0141 34.74 23.0141ZM34.7313 18.6005C37.068 18.6005 38.9623 16.6672 38.9623 14.2822C38.9623 11.8973 37.068 9.96392 34.7313 9.96392C32.3945 9.96392 30.5002 11.8973 30.5002 14.2822C30.5002 16.6672 32.3945 18.6005 34.7313 18.6005ZM89.4438 14.2904C89.4438 19.1085 85.538 23.0143 80.72 23.0143C75.9019 23.0143 71.9961 19.1085 71.9961 14.2904C71.9961 9.47237 75.9019 5.56656 80.72 5.56656C85.538 5.56656 89.4438 9.47237 89.4438 14.2904ZM84.9422 14.2824C84.9422 16.6673 83.0479 18.6007 80.7111 18.6007C78.3744 18.6007 76.48 16.6673 76.48 14.2824C76.48 11.8974 78.3744 9.96407 80.7111 9.96407C83.0479 9.96407 84.9422 11.8974 84.9422 14.2824Z" fill="#fff"/>
<path fill-rule="evenodd" clip-rule="evenodd" d="M71.9048 23.6498C71.9348 23.6002 71.9783 23.5586 72.0327 23.531C75.1103 21.9746 78.8495 23.7182 79.6353 27.0761C79.6684 27.2177 79.6003 27.3641 79.4703 27.4299C76.393 28.9863 72.6538 27.2427 71.8677 23.8848C71.8484 23.8023 71.8635 23.7185 71.9048 23.6498ZM89.508 23.6734C89.4963 23.6501 89.4817 23.628 89.4648 23.6079C89.4382 23.5769 89.4053 23.5506 89.3674 23.5313C86.2898 21.9748 82.5506 23.7185 81.7648 27.0764C81.7468 27.1533 81.7584 27.2313 81.7937 27.2973C81.7998 27.3087 81.8067 27.3198 81.8144 27.3307C81.8221 27.3416 81.8303 27.3519 81.8393 27.3617C81.8645 27.3893 81.895 27.4127 81.9298 27.4302C85.0071 28.9866 88.7463 27.2429 89.5324 23.885C89.5398 23.854 89.5422 23.8227 89.5401 23.7922C89.5387 23.7726 89.5356 23.7532 89.5308 23.7344C89.5255 23.7134 89.5178 23.693 89.508 23.6734Z" fill="#3FC78E"/>
</svg>
